<svg width="157" height="70" viewBox="0 0 157 70" fill="none" xmlns="http://www.w3.org/2000/svg">
<g clip-path="url(#clip0_118_946)">
<g clip-path="url(#clip1_118_946)">
<path fill-rule="evenodd" clip-rule="evenodd" d="M21.249 36.0726C21.883 36.7427 22.6918 37.5007 23.6209 38.2038C24.5171 39.3902 25.3697 40.7854 25.938 42.3233C26.3534 43.4768 26.6157 44.7181 26.6157 46.0254C26.6157 50.4525 23.0744 54.0557 18.7242 54.0557C16.09 54.0557 13.751 52.7375 12.3191 50.7052C13.1717 50.5624 14.0024 50.2767 14.7893 49.8483C15.784 50.9139 17.183 51.573 18.7242 51.573C21.73 51.573 24.1674 49.0903 24.1674 46.0364C24.1674 44.6632 23.752 42.554 21.872 39.9834C21.6425 39.6758 21.4021 39.3573 21.1288 39.0277C20.6588 38.4674 20.1888 37.9621 19.7625 37.5447C19.7625 36.9954 19.8063 36.512 19.839 36.1275C20.2216 36.0946 20.7025 36.0726 21.26 36.0616L21.249 36.0726ZM26.2878 21.6927C26.4955 22.4178 26.6157 23.1867 26.6157 23.9777C26.6157 25.274 26.3643 26.5153 25.938 27.6798C25.3697 29.2287 24.5281 30.6239 23.6209 31.8103C22.6809 32.5243 21.8611 33.2933 21.2272 33.9634C20.6807 33.9634 20.2107 33.9195 19.8281 33.8865C19.7953 33.502 19.7735 33.0077 19.7625 32.4474C20.4183 31.7993 21.1725 30.9754 21.872 30.0197C23.1071 28.3169 24.1674 26.2187 24.1674 23.9667C24.1674 23.3845 24.0799 22.8242 23.916 22.2969C24.6592 21.9124 25.468 21.7037 26.2878 21.6817V21.6927ZM25.1401 19.3089C23.7083 17.2766 21.3693 15.9474 18.7242 15.9474C14.374 15.9474 10.8326 19.5506 10.8326 23.9777C10.8326 25.285 11.095 26.5263 11.5103 27.6798C12.0787 29.2177 12.9203 30.6239 13.8275 31.8103C14.7675 32.5133 15.5763 33.2823 16.2103 33.9524C16.7568 33.9524 17.2377 33.9195 17.6202 33.8865C17.653 33.502 17.6858 33.0187 17.6967 32.4584C17.0409 31.8103 16.2868 30.9864 15.5872 30.0306C14.3412 28.3279 13.2919 26.2297 13.2919 23.9777C13.2919 20.9237 15.7403 18.441 18.7351 18.441C20.2872 18.441 21.6862 19.1002 22.6809 20.1658C23.4569 19.7373 24.2985 19.4517 25.1511 19.3089H25.1401ZM11.1715 48.3323C10.9529 47.6073 10.8436 46.8383 10.8436 46.0364C10.8436 44.7401 11.095 43.4988 11.5212 42.3343C12.0896 40.7963 12.9312 39.4012 13.8384 38.2148C14.1445 37.9841 14.4505 37.7314 14.7784 37.4568C15.3249 36.9844 15.8168 36.5011 16.2212 36.0726C16.7677 36.0726 17.2486 36.1166 17.6202 36.1495C17.653 36.534 17.6749 37.0283 17.6858 37.5776C17.03 38.2258 16.2758 39.0387 15.5872 39.9944C14.3521 41.6971 13.2919 43.7954 13.2919 46.0474C13.2919 46.6296 13.3794 47.2008 13.5433 47.7281C12.8001 48.1126 11.9912 48.3213 11.1715 48.3433V48.3323Z" fill="url(#paint0_linear_118_946)"/>
<path fill-rule="evenodd" clip-rule="evenodd" d="M28.9218 35.0172C30.0257 35.5335 31.075 36.2256 31.9713 37.1484C35.0317 40.2902 35.0317 45.3874 31.9604 48.5073C30.1022 50.3858 27.5446 51.1328 25.14 50.7373C25.6537 50.0233 26.0472 49.2214 26.2986 48.3535C27.7304 48.3865 29.1622 47.8482 30.2443 46.7496C32.3757 44.5965 32.3757 41.0812 30.2553 38.917C28.6923 37.3132 26.4844 36.5881 24.4295 36.2696C23.2819 36.0938 22.1779 36.0498 21.2707 36.0608C20.7242 36.0608 20.2433 36.0938 19.8607 36.1267C19.8279 36.5112 19.8061 36.9946 19.7952 37.5439C19.7842 38.4776 19.817 39.5981 19.981 40.7846C20.2761 42.8718 20.9865 45.1348 22.5495 46.7277C22.9649 47.1561 23.4349 47.4966 23.9377 47.7603C23.6863 48.5622 23.2381 49.2982 22.6698 49.8915C22.003 49.5289 21.38 49.0566 20.8226 48.4853C19.9154 47.5735 19.2377 46.497 18.7349 45.3765C18.7349 45.3765 18.7349 45.3655 18.7349 45.3545C18.7349 45.3545 18.7349 45.3545 18.7349 45.3655C18.2321 46.486 17.5545 47.5516 16.6473 48.4743C13.565 51.6052 8.55901 51.5832 5.48765 48.4524C2.42722 45.3215 2.42722 40.2243 5.52044 37.1044C6.41671 36.1817 7.47693 35.5006 8.58087 34.9843C7.47693 34.4679 6.43857 33.7759 5.53137 32.8531C2.46001 29.7222 2.47094 24.625 5.55323 21.4942C7.41135 19.6157 9.96899 18.8687 12.3736 19.2641C11.8599 19.9782 11.4664 20.7801 11.215 21.648C9.78318 21.615 8.35134 22.1533 7.26926 23.2518C5.13789 25.405 5.13789 28.9203 7.25833 31.0844C8.19831 32.0621 9.96899 33.2486 13.0841 33.7319C13.4557 33.7868 13.8492 33.8308 14.2645 33.8747C14.9859 33.9297 15.6526 33.9516 16.2429 33.9406C16.7894 33.9406 17.2594 33.9077 17.6419 33.8747C17.7294 32.8421 17.7949 31.1064 17.5217 29.2169C17.5217 29.2059 17.5217 29.1949 17.5217 29.184C17.2156 27.0967 16.5052 24.8557 14.9531 23.2738C14.5378 22.8454 14.0678 22.5048 13.5759 22.2412C13.8273 21.4392 14.2755 20.7032 14.8438 20.11C15.5106 20.4725 16.1336 20.9339 16.691 21.5052C17.5982 22.4169 18.2649 23.4825 18.7677 24.603C19.2705 23.4825 19.9482 22.4279 20.8444 21.5161C23.9267 18.3853 28.9327 18.4073 32.0041 21.5381C35.0754 24.669 35.0645 29.7662 31.9822 32.886C31.0859 33.8088 30.0257 34.4899 28.9218 35.0062V35.0172ZM24.4186 33.7539C26.4734 33.4463 28.6813 32.7213 30.2443 31.1394C32.3757 28.9752 32.3757 25.4709 30.2553 23.3068C28.1457 21.1426 24.6918 21.1317 22.5605 23.2958C21.6095 24.2515 20.451 26.0311 19.97 29.162C19.97 29.184 19.97 29.1949 19.97 29.2169C19.9154 29.6014 19.8717 29.9969 19.8279 30.4253C19.7733 31.1504 19.7514 31.8424 19.7624 32.4466C19.7624 33.0179 19.7952 33.5012 19.8279 33.8857C19.981 33.8967 20.1449 33.9187 20.3307 33.9297C20.4619 33.9297 20.593 33.9406 20.7351 33.9516C20.8882 33.9516 21.0521 33.9516 21.227 33.9626C22.1342 33.9736 23.2491 33.9406 24.3967 33.7649L24.4186 33.7539ZM7.18182 46.6947C9.29132 48.8588 12.7452 48.8698 14.8766 46.7057C16.4396 45.1238 17.1719 42.8608 17.467 40.7736C17.7403 38.8951 17.6856 37.1484 17.6091 36.1158C16.6036 36.0279 14.8875 35.962 13.0403 36.2366C10.9855 36.5442 8.76668 37.2692 7.20368 38.8511C5.07231 41.0043 5.07231 44.5196 7.19275 46.6837L7.18182 46.6947Z" fill="url(#paint1_radial_118_946)"/>
<path d="M4.13158 30.9857C3.71624 30.1837 3.43205 29.3378 3.30089 28.47C1.30068 29.942 0 32.3149 0 34.9953C0 37.6758 1.28975 40.0376 3.2681 41.4987C3.41019 40.6308 3.68344 39.774 4.10972 38.983C3.08229 37.9834 2.44834 36.5662 2.44834 35.0063C2.44834 33.4464 3.10415 31.9963 4.14251 30.9857H4.13158ZM34.1894 28.503C34.0473 29.3708 33.774 30.2277 33.3477 31.0296C34.3752 32.0403 35.0091 33.4464 35.0091 35.0063C35.0091 36.5662 34.3533 38.0053 33.315 39.016C33.7303 39.8069 34.0145 40.6638 34.1456 41.5316C36.1459 40.0706 37.4465 37.6868 37.4465 35.0063C37.4465 32.3259 36.1568 29.953 34.1784 28.503H34.1894ZM29.5659 29.4587C30.1562 29.4587 30.7245 29.5576 31.2601 29.7333C31.6426 28.9753 31.8394 28.1514 31.8503 27.3165C31.1289 27.0968 30.3638 26.976 29.5659 26.976C25.4125 26.976 21.8711 29.7773 19.7616 31.9084C19.3572 32.3149 19.0074 32.6994 18.7233 33.0289C18.4391 32.6884 18.0893 32.3149 17.6958 31.9084C15.5973 29.7663 12.045 26.965 7.8806 26.965C7.09364 26.965 6.33946 27.0858 5.63993 27.3055C5.65086 28.1404 5.85854 28.9643 6.24109 29.7223C6.76573 29.5466 7.31224 29.4587 7.89153 29.4587C11.3454 29.4587 14.4496 32.0842 16.2203 33.9407C16.6028 34.3472 16.9198 34.7097 17.1712 35.0063C16.9307 35.2919 16.6138 35.6654 16.2312 36.0609C15.8268 36.4893 15.3349 36.9727 14.7775 37.4561C11.8264 40.0157 9.39989 40.5539 7.89153 40.5539C7.30131 40.5539 6.73294 40.4551 6.19737 40.2793C5.81481 41.0373 5.61807 41.8612 5.60714 42.6961C6.32853 42.9158 7.09364 43.0366 7.89153 43.0366C12.045 43.0366 15.5863 40.2354 17.6849 38.1042C18.0893 37.6977 18.4391 37.3023 18.7342 36.9727C19.0184 37.3132 19.3681 37.6868 19.7616 38.0932C21.8602 40.2354 25.4125 43.0366 29.5769 43.0366C30.3638 43.0366 31.118 42.9158 31.8175 42.6961C31.8066 41.8612 31.5989 41.0373 31.2164 40.2793C30.6917 40.4551 30.1452 40.543 29.5659 40.543C26.1229 40.543 23.0079 37.9174 21.2372 36.0719C20.8546 35.6654 20.5377 35.3029 20.2863 35.0063C20.5267 34.7207 20.8546 34.3472 21.2263 33.9517C22.986 32.0952 26.1011 29.4587 29.555 29.4587H29.5659Z" fill="#2475F5"/>
<path d="M17.1597 34.9947C17.6843 35.6538 18.198 36.302 18.7227 36.9611C18.5806 37.1368 18.4276 37.3016 18.2636 37.4774C17.9903 37.774 17.7171 38.0706 17.4548 38.3452C16.9411 37.6861 16.4383 37.027 15.9246 36.3679C16.2087 36.0822 16.4929 35.7747 16.788 35.4451C16.9192 35.2913 17.0394 35.1485 17.1597 34.9947Z" fill="url(#paint2_linear_118_946)"/>
<path d="M20.2962 34.9954C19.7715 34.3363 19.2469 33.6881 18.7332 33.029C18.919 32.8093 19.1157 32.6006 19.3234 32.3699C19.542 32.1392 19.7497 31.9195 19.9792 31.6998C20.5476 32.304 21.0941 32.9082 21.6624 33.5124C21.3454 33.8309 21.0066 34.1825 20.6787 34.556C20.5476 34.7098 20.4273 34.8526 20.2962 34.9954Z" fill="url(#paint3_linear_118_946)"/>
<path opacity="0.5" d="M8.61258 29.5025C8.37212 29.4805 8.13166 29.4695 7.88026 29.4695C7.3119 29.4695 6.75446 29.5574 6.22982 29.7332C5.84726 28.9752 5.63959 28.1513 5.62866 27.3164C6.19703 27.1406 6.78725 27.0308 7.39934 26.9978L8.60165 29.5025H8.61258Z" fill="url(#paint4_linear_118_946)"/>
<path opacity="0.5" d="M4.13225 30.9865C3.62946 31.4589 3.23598 32.0411 2.94087 32.6783L1.67297 30.0528C2.13204 29.4486 2.67854 28.9213 3.29063 28.4709C3.43272 29.3387 3.7169 30.1956 4.13225 30.9865Z" fill="url(#paint5_linear_118_946)"/>
<path opacity="0.5" d="M28.8654 29.5025C29.084 29.4695 29.3354 29.4586 29.5977 29.4696C30.2644 29.4696 30.8218 29.6014 31.259 29.7442C31.4121 29.4366 31.576 29.0411 31.6963 28.5358C31.8056 28.0634 31.8383 27.646 31.8383 27.3274C31.587 27.2505 31.2918 27.1626 30.9639 27.1077C30.636 27.0528 30.33 27.0088 30.0677 26.9978L28.8654 29.5025Z" fill="url(#paint6_linear_118_946)"/>
<path opacity="0.5" d="M33.3593 31.0179C33.556 31.2156 33.7855 31.4683 34.0041 31.7869C34.2337 32.1274 34.3976 32.435 34.5288 32.6987C34.955 31.8308 35.3813 30.952 35.8076 30.0731C35.6109 29.8095 35.3704 29.5349 35.0862 29.2492C34.7802 28.9416 34.4741 28.7 34.2118 28.5022C34.1571 28.8757 34.0588 29.3151 33.8948 29.7875C33.7309 30.2599 33.556 30.6773 33.3702 31.0179H33.3593Z" fill="url(#paint7_linear_118_946)"/>
<path opacity="0.5" d="M8.54792 40.499C8.32932 40.532 8.08886 40.543 7.8156 40.532C7.1598 40.532 6.61329 40.4002 6.20888 40.2574C6.06679 40.543 5.8919 40.9384 5.7826 41.4108C5.66237 41.9052 5.61865 42.3446 5.61865 42.6741C5.87004 42.751 6.15423 42.8279 6.4712 42.8829C6.78817 42.9378 7.08329 42.9817 7.34561 43.0037L8.54792 40.499Z" fill="url(#paint8_linear_118_946)"/>
<path opacity="0.5" d="M4.09904 38.9828C3.9023 38.7851 3.67277 38.5324 3.44324 38.2138C3.20278 37.8733 3.03882 37.5547 2.91859 37.2801C2.49232 38.1479 2.06604 39.0267 1.63977 39.9056C1.82558 40.1582 2.06604 40.4439 2.35023 40.7295C2.6672 41.0481 2.98417 41.3117 3.26836 41.4985C3.32301 41.114 3.43231 40.6526 3.60719 40.1473C3.74928 39.6969 3.93509 39.3014 4.10997 38.9938L4.09904 38.9828Z" fill="url(#paint9_linear_118_946)"/>
<path opacity="0.5" d="M28.8654 40.4983C29.084 40.5313 29.3354 40.5423 29.5977 40.5313C30.2425 40.5313 30.7891 40.3995 31.2153 40.2786C31.3574 40.5642 31.5323 40.9597 31.6416 41.4321C31.7618 41.9264 31.7946 42.3549 31.7946 42.6844C31.5542 42.7613 31.27 42.8382 30.9639 42.8932C30.636 42.9481 30.33 42.992 30.0677 43.003L28.8654 40.4983Z" fill="url(#paint10_linear_118_946)"/>
<path opacity="0.5" d="M33.3252 39.0164C33.5329 38.8187 33.7843 38.5441 34.0138 38.2145C34.2324 37.9069 34.3963 37.5993 34.5166 37.3466C34.9429 38.2145 35.3691 39.0823 35.7954 39.9502C35.5987 40.2029 35.3582 40.4885 35.074 40.7741C34.757 41.0817 34.451 41.3453 34.1777 41.5431C34.1231 41.1806 34.0357 40.7521 33.8826 40.2907C33.7187 39.7854 33.5219 39.357 33.3361 39.0164H33.3252Z" fill="url(#paint11_linear_118_946)"/>
<path d="M52.9681 45.0363H57.1762V30.8541L57.2418 28.0309L57.1762 27.965L54.7825 29.481L52.0719 31.1398L51.5909 27.1081L59.1655 22.0219H61.9745V45.0363H66.0733V48.5736H52.9791V45.0363H52.9681Z" fill="#2475F5"/>
<path d="M88.7418 35.3911C88.7418 37.7969 88.556 39.8621 88.1844 41.5759C87.8128 43.3006 87.2335 44.7067 86.4465 45.8162C85.6814 46.9038 84.6977 47.7057 83.4954 48.222C82.3149 48.7164 80.894 48.969 79.2217 48.969C77.5494 48.969 76.0848 48.7164 74.8825 48.222C73.702 47.7057 72.7292 46.9038 71.9641 45.8162C71.199 44.7067 70.6306 43.2896 70.259 41.5759C69.9093 39.8511 69.7344 37.7969 69.7344 35.3911C69.7344 32.9853 69.9093 30.7882 70.259 29.0635C70.6306 27.3168 71.199 25.8997 71.9641 24.8231C72.7292 23.7356 73.7129 22.9556 74.9152 22.4942C76.1176 21.9999 77.5713 21.7472 79.2545 21.7472C80.9377 21.7472 82.3477 21.9999 83.5282 22.4942C84.7305 22.9666 85.7142 23.7465 86.4793 24.8231C87.2444 25.9107 87.8128 27.3168 88.1844 29.0635C88.556 30.7882 88.7418 32.8974 88.7418 35.3911ZM84.1512 35.3252C84.1512 33.3917 84.0419 31.8208 83.8342 30.6234C83.6484 29.393 83.3642 28.4593 82.9707 27.8002C82.5773 27.1191 82.0635 26.6577 81.4405 26.416C80.8175 26.1523 80.0852 26.0315 79.2545 26.0315C78.4238 26.0315 77.6587 26.1633 77.0357 26.416C76.4127 26.6467 75.888 27.1081 75.4727 27.8002C75.0792 28.4812 74.7732 29.437 74.5655 30.6673C74.3797 31.8648 74.2922 33.4357 74.2922 35.3691C74.2922 37.3025 74.3797 38.9503 74.5655 40.1807C74.7732 41.4111 75.0792 42.3558 75.4727 43.0479C75.888 43.729 76.4127 44.1904 77.0357 44.4321C77.6587 44.6628 78.4019 44.7836 79.2545 44.7836C80.107 44.7836 80.8175 44.6628 81.4405 44.4321C82.0635 44.1684 82.5773 43.696 82.9707 43.0149C83.3642 42.3338 83.6593 41.3781 83.8342 40.1477C84.0419 38.8954 84.1512 37.2915 84.1512 35.3361V35.3252Z" fill="#2475F5"/>
<path d="M109.749 35.3911C109.749 37.7969 109.563 39.8621 109.191 41.5759C108.82 43.3006 108.241 44.7067 107.454 45.8162C106.688 46.9038 105.705 47.7057 104.502 48.222C103.322 48.7164 101.901 48.969 100.229 48.969C98.5565 48.969 97.0919 48.7164 95.8895 48.222C94.7091 47.7057 93.7363 46.9038 92.9712 45.8162C92.2061 44.7067 91.6377 43.2896 91.2661 41.5759C90.9163 39.8511 90.7415 37.7969 90.7415 35.3911C90.7415 32.9853 90.9163 30.7882 91.2661 29.0635C91.6377 27.3168 92.2061 25.8997 92.9712 24.8231C93.7363 23.7356 94.72 22.9556 95.9223 22.4942C97.1246 21.9999 98.5783 21.7472 100.262 21.7472C101.945 21.7472 103.355 21.9999 104.535 22.4942C105.738 22.9666 106.721 23.7465 107.486 24.8231C108.251 25.9107 108.82 27.3168 109.191 29.0635C109.563 30.7882 109.749 32.8974 109.749 35.3911ZM105.158 35.3252C105.158 33.3917 105.049 31.8208 104.841 30.6234C104.655 29.393 104.36 28.4593 103.967 27.8002C103.573 27.1191 103.06 26.6577 102.437 26.416C101.814 26.1523 101.081 26.0315 100.251 26.0315C99.42 26.0315 98.6549 26.1633 98.0318 26.416C97.4088 26.6467 96.8842 27.1081 96.4688 27.8002C96.0754 28.4812 95.7693 29.437 95.5616 30.6673C95.3758 31.8648 95.2884 33.4357 95.2884 35.3691C95.2884 37.3025 95.3758 38.9503 95.5616 40.1807C95.7693 41.4111 96.0754 42.3558 96.4688 43.0479C96.8842 43.729 97.4088 44.1904 98.0318 44.4321C98.6549 44.6628 99.3981 44.7836 100.251 44.7836C101.103 44.7836 101.814 44.6628 102.437 44.4321C103.06 44.1684 103.573 43.696 103.967 43.0149C104.36 42.3338 104.645 41.3781 104.841 40.1477C105.049 38.8954 105.158 37.2915 105.158 35.3361V35.3252Z" fill="#2475F5"/>
<path d="M135.851 48.5734V34.7538C135.851 33.4795 135.523 32.5457 134.878 31.9635C134.233 31.3483 133.326 31.0407 132.167 31.0407C131.151 31.0407 130.298 31.3263 129.631 31.8866C128.965 32.4468 128.626 33.3257 128.626 34.5011V48.5734H124.21V34.5011C124.21 33.2268 123.871 32.337 123.204 31.8097C122.56 31.2714 121.707 30.9968 120.669 30.9968C119.925 30.9968 119.215 31.1725 118.515 31.5241C117.849 31.8756 117.324 32.348 116.952 32.9412V48.5734H112.537V27.3935L115.695 27.1848L116.461 29.305C117.182 28.547 118.002 27.9758 118.931 27.5693C119.86 27.1409 120.833 26.9322 121.849 26.9322C124.516 26.9322 126.374 27.9428 127.445 29.9751C128.112 28.9095 128.954 28.1515 129.948 27.6792C130.965 27.1848 132.102 26.9322 133.348 26.9322C134.364 26.9322 135.293 27.0969 136.124 27.4265C136.976 27.7341 137.709 28.2175 138.31 28.8766C138.933 29.5137 139.414 30.3157 139.731 31.2824C140.08 32.2491 140.255 33.3806 140.255 34.6769V48.5734H135.84H135.851Z" fill="#2475F5"/>
<path d="M157.001 42.1023C157.001 43.135 156.848 44.0797 156.553 44.9256C156.246 45.7715 155.787 46.5075 155.164 47.1227C154.541 47.7159 153.744 48.1663 152.771 48.5068C151.798 48.8474 150.639 49.0012 149.295 49.0012C148.049 49.0012 146.868 48.8694 145.754 48.6167C144.661 48.353 143.677 47.9576 142.802 47.4193L143.327 43.5964C144.136 44.1346 145.098 44.5521 146.213 44.8377C147.328 45.1233 148.355 45.2661 149.306 45.2661C150.585 45.2661 151.492 45.0025 152.049 44.4862C152.629 43.9699 152.913 43.3217 152.913 42.5418C152.913 41.8607 152.661 41.3334 152.148 40.9489C151.656 40.5754 151.033 40.2458 150.268 39.9602C149.503 39.6746 148.683 39.4109 147.798 39.1473C146.945 38.8616 146.125 38.4991 145.371 38.0487C144.606 37.5763 143.972 36.9612 143.458 36.2142C142.977 35.4562 142.726 34.4675 142.726 33.2481C142.726 31.3806 143.36 29.8756 144.639 28.7221C145.918 27.5467 147.819 26.9535 150.366 26.9535C152.454 26.9535 154.388 27.3489 156.17 28.1509L155.787 31.8969C154.902 31.5234 153.973 31.2488 152.978 31.084C152.006 30.8972 151.109 30.7984 150.301 30.7984C149.262 30.7984 148.431 30.9961 147.83 31.4026C147.251 31.798 146.967 32.3583 146.967 33.0613C146.967 33.6985 147.207 34.1928 147.699 34.5444C148.213 34.8739 148.836 35.1705 149.579 35.4232C150.322 35.6869 151.12 35.9505 151.973 36.2361C152.847 36.4998 153.667 36.8623 154.399 37.3347C155.143 37.7851 155.755 38.3783 156.236 39.1363C156.749 39.8943 157.001 40.883 157.001 42.1023Z" fill="#2475F5"/>
</g>
</g>
<defs>
<linearGradient id="paint0_linear_118_946" x1="18.7242" y1="15.9474" x2="18.7242" y2="54.0557" gradientUnits="userSpaceOnUse">
<stop stop-color="#2475F5" stop-opacity="0.25"/>
<stop offset="0.5" stop-color="#2475F5" stop-opacity="0.2"/>
<stop offset="1" stop-color="#2475F5" stop-opacity="0.25"/>
</linearGradient>
<radialGradient id="paint1_radial_118_946" cx="0" cy="0" r="1" gradientUnits="userSpaceOnUse" gradientTransform="translate(19.5836 35.7248) rotate(136.216) scale(18.5493 18.6083)">
<stop stop-color="#2475F5" stop-opacity="0.3"/>
<stop offset="0.61" stop-color="#2475F5" stop-opacity="0.45"/>
</radialGradient>
<linearGradient id="paint2_linear_118_946" x1="16.7443" y1="37.2577" x2="19.0295" y2="34.9403" gradientUnits="userSpaceOnUse">
<stop stop-color="#571939" stop-opacity="0"/>
<stop offset="1" stop-color="#571939"/>
</linearGradient>
<linearGradient id="paint3_linear_118_946" x1="20.7771" y1="32.6994" x2="18.459" y2="35.0496" gradientUnits="userSpaceOnUse">
<stop stop-color="#551938" stop-opacity="0"/>
<stop offset="1" stop-color="#561939"/>
</linearGradient>
<linearGradient id="paint4_linear_118_946" x1="4.2624" y1="28.9972" x2="7.18197" y2="28.3879" gradientUnits="userSpaceOnUse">
<stop offset="0.14"/>
<stop offset="1" stop-opacity="0"/>
</linearGradient>
<linearGradient id="paint5_linear_118_946" x1="4.46015" y1="29.174" x2="2.70256" y2="30.9118" gradientUnits="userSpaceOnUse">
<stop stop-opacity="0.7"/>
<stop offset="1" stop-opacity="0"/>
</linearGradient>
<linearGradient id="paint6_linear_118_946" x1="33.2483" y1="29.0082" x2="30.3178" y2="28.388" gradientUnits="userSpaceOnUse">
<stop offset="0.14"/>
<stop offset="1" stop-opacity="0"/>
</linearGradient>
<linearGradient id="paint7_linear_118_946" x1="33.0204" y1="29.2163" x2="34.767" y2="30.9322" gradientUnits="userSpaceOnUse">
<stop stop-opacity="0.7"/>
<stop offset="1" stop-opacity="0"/>
</linearGradient>
<linearGradient id="paint8_linear_118_946" x1="4.24146" y1="41.0044" x2="7.11733" y2="41.6136" gradientUnits="userSpaceOnUse">
<stop offset="0.14"/>
<stop offset="1" stop-opacity="0"/>
</linearGradient>
<linearGradient id="paint9_linear_118_946" x1="4.43788" y1="40.7844" x2="2.68029" y2="39.0466" gradientUnits="userSpaceOnUse">
<stop stop-opacity="0.7"/>
<stop offset="1" stop-opacity="0"/>
</linearGradient>
<linearGradient id="paint10_linear_118_946" x1="33.1827" y1="41.0146" x2="30.296" y2="41.613" gradientUnits="userSpaceOnUse">
<stop offset="0.14"/>
<stop offset="1" stop-opacity="0"/>
</linearGradient>
<linearGradient id="paint11_linear_118_946" x1="33.0082" y1="40.84" x2="34.7549" y2="39.1021" gradientUnits="userSpaceOnUse">
<stop stop-opacity="0.7"/>
<stop offset="1" stop-opacity="0"/>
</linearGradient>
<clipPath id="clip0_118_946">
<rect width="157" height="70" fill="white"/>
</clipPath>
<clipPath id="clip1_118_946">
<rect width="157" height="42.5904" fill="white" transform="translate(0 13.7048)"/>
</clipPath>
</defs>
</svg>
