<svg width="1445" height="1445" viewBox="0 0 1445 2011" fill="none" xmlns="http://www.w3.org/2000/svg">
<path d="M1444.23 1897.07C1444.21 1927.28 1432.2 1956.24 1410.84 1977.6C1389.48 1998.96 1360.51 2010.98 1330.3 2011H114.629C84.4193 2011 55.4445 1999.01 34.0663 1977.67C12.688 1956.32 0.653609 1927.37 0.605505 1897.16V117.816C0.593566 102.839 3.5347 88.0066 9.26067 74.1673C14.9866 60.328 23.3851 47.7534 33.9755 37.163C44.5659 26.5726 57.1405 18.1741 70.9798 12.4481C84.8191 6.72216 99.6516 3.78107 114.629 3.793H894.816L1444.23 564.104V1897.07Z" fill="#23A566"/>
<path d="M955.277 549.488L1444.23 1016.84V560.836H1011.11C992.199 561.05 973.558 556.358 957.002 547.219L955.277 549.488Z" fill="#1C8F5A"/>
<path d="M1444.23 563.199H1009.93C979.719 563.175 950.754 551.164 929.393 529.802C908.031 508.441 896.02 479.476 895.996 449.267V0.708984L1444.23 563.199Z" fill="#8ED1B1"/>
<path fill-rule="evenodd" clip-rule="evenodd" d="M1096.63 1640.97H345.406V989.605H1096.63V1640.97ZM767.728 1083.57V1197.59H1004.31V1083.75L767.728 1083.57ZM767.728 1269.4V1378.34H1004.31V1268.85L767.728 1269.4ZM767.728 1447.79V1548.65H1004.31V1447.24L767.728 1447.79ZM674.857 1548.1V1447.24H438.368V1548.1H674.857ZM674.857 1377.16V1268.85H438.368V1377.7L674.857 1377.16ZM674.857 1198.77V1083.57H438.368V1197.59L674.857 1198.77Z" fill="white"/>
</svg>
