<svg width="156" height="72" viewBox="0 0 156 72" fill="none" xmlns="http://www.w3.org/2000/svg">
<g clip-path="url(#clip0_131_2122)">
<g clip-path="url(#clip1_131_2122)">
<path d="M56.3565 32.0688C56.3565 35.9382 53.3594 38.8436 49.3408 38.8436H44.4124V46.4431H41.7616V25.2975H49.3408C53.3289 25.2975 56.3565 28.1757 56.3565 32.0688ZM53.6513 32.0688C53.6513 29.6556 51.7947 27.8635 49.2016 27.8635H44.409V36.2742H49.2016C51.7947 36.2742 53.6513 34.4855 53.6513 32.0688ZM58.2301 38.2869C58.2301 33.3688 61.9365 29.7744 66.875 29.7744C71.8169 29.7744 75.5199 33.3993 75.5199 38.2869C75.5199 43.1745 71.8169 46.7995 66.875 46.7995C61.9331 46.7995 58.2301 43.1745 58.2301 38.2869ZM66.875 44.315C70.3642 44.315 72.8996 41.7795 72.8996 38.2869C72.8996 34.7943 70.3676 32.2589 66.875 32.2589C63.3824 32.2589 60.8503 34.7943 60.8503 38.2869C60.8503 41.7795 63.3858 44.315 66.875 44.315ZM93.3867 36.6713V46.4431H90.8208V37.2789C90.8208 33.9696 89.2662 32.1231 86.4321 32.1231C83.6421 32.1231 81.497 34.4855 81.497 37.547V46.4465H78.931V30.1308H80.7537L81.2526 32.6866C82.4813 30.8707 84.5687 29.7744 87.094 29.7744C90.9667 29.7744 93.3867 32.6866 93.3867 36.6713ZM106.519 44.0706V46.4465H104.408C100.905 46.4465 98.7427 44.281 98.7427 40.7443V32.449H95.8747V31.9908L100.908 26.6755H101.309V30.1274H106.424V32.4456H101.309V40.6594C101.309 42.8555 102.517 44.0706 104.737 44.0706H106.519ZM125.553 39.2814H111.654C112.058 42.3022 114.305 44.2878 117.394 44.2878C119.651 44.2878 121.463 43.2322 122.471 41.4706H125.176C123.795 44.8343 120.93 46.7995 117.394 46.7995C112.662 46.7995 109.078 43.144 109.078 38.2835C109.078 33.4265 112.662 29.771 117.394 29.771C122.342 29.771 125.611 33.586 125.611 38.3514C125.607 38.6637 125.58 38.9725 125.553 39.2814ZM117.39 32.2046C114.431 32.2046 112.241 34.068 111.712 36.9089H123.035C122.481 34.0035 120.275 32.2046 117.39 32.2046ZM137.854 30.0459V32.4761H136.19C133.207 32.4761 131.527 34.4108 131.527 37.5809V46.4431H128.961V30.1308H130.784L131.201 32.6153C132.355 30.9454 134.066 30.0459 136.411 30.0459H137.854ZM156.073 30.1308V46.4431H153.949L153.677 43.9721C152.174 45.7269 149.927 46.7995 147.279 46.7995C142.459 46.7995 138.841 43.144 138.841 38.2869C138.841 33.3993 142.459 29.7744 147.279 29.7744C149.947 29.7744 152.208 30.8537 153.711 32.6323L154.03 30.1308H156.073ZM153.453 38.2869C153.453 34.8181 150.931 32.2589 147.473 32.2589C144.021 32.2589 141.462 34.852 141.462 38.2869C141.462 41.7218 144.021 44.315 147.473 44.315C150.931 44.315 153.453 41.7558 153.453 38.2869Z" fill="#020205"/>
<path d="M29.9056 24.7441C28.9417 22.4972 27.5535 20.498 25.7817 18.8043C24.01 17.1106 21.9463 15.8107 19.6485 14.9451C17.3608 14.0796 14.9306 13.7776 12.5106 13.7776H10.6777V23.6274H0.14563V57.9491H13.0027V49.871C13.0706 49.871 13.1385 49.8744 13.203 49.8744C15.4126 49.8744 17.5746 49.4773 19.6485 48.6933C21.9463 47.8244 24.01 46.5278 25.7817 44.8341C27.5535 43.1404 28.9417 41.1413 29.9056 38.8943C30.8696 36.644 31.3583 34.2647 31.3583 31.8209C31.3583 29.3737 30.8696 26.9944 29.9056 24.7441ZM10.6743 37.6113V49.8575V55.6207H2.47063V25.9524H10.6743V26.0237V37.6113ZM27.7673 37.9745C26.9289 39.9329 25.7206 41.6741 24.1763 43.1506C22.6319 44.6271 20.833 45.7607 18.8271 46.5176C16.9569 47.2236 14.9985 47.5732 13.0027 47.546V39.9906C13.7087 39.9296 14.4011 39.7768 15.0731 39.5324C16.1355 39.1489 17.0927 38.5651 17.9174 37.7946C18.7422 37.0242 19.3871 36.1077 19.8385 35.0759C20.2866 34.0407 20.5174 32.9444 20.5174 31.8209C20.5174 30.694 20.29 29.5977 19.8385 28.5659C19.3905 27.5307 18.7422 26.6177 17.9174 25.8472C17.0927 25.0767 16.1355 24.4929 15.0731 24.1094C14.3977 23.8684 13.7053 23.7157 13.0027 23.6512V23.6342V16.0924C15.0019 16.0652 16.9569 16.4114 18.8305 17.1208C20.833 17.8777 22.6353 19.0114 24.1797 20.4878C25.724 21.9643 26.9323 23.7055 27.7707 25.6639C28.609 27.6223 29.0333 29.6928 29.0333 31.8209C29.0333 33.9456 28.6057 36.0161 27.7673 37.9745ZM13.0027 37.6487V25.9897C13.4372 26.044 13.8682 26.1425 14.2857 26.2918C15.0494 26.5667 15.7384 26.9876 16.329 27.5409C16.9196 28.0941 17.3846 28.7492 17.7036 29.4891C18.0261 30.229 18.189 31.0131 18.189 31.8175C18.189 32.6219 18.0261 33.406 17.7036 34.1459C17.3812 34.8858 16.9196 35.5409 16.329 36.0942C15.735 36.6474 15.0494 37.0683 14.2857 37.3432C13.8682 37.4959 13.4372 37.5944 13.0027 37.6487Z" fill="#020205"/>
</g>
</g>
<defs>
<clipPath id="clip0_131_2122">
<rect width="156" height="72" fill="white"/>
</clipPath>
<clipPath id="clip1_131_2122">
<rect width="155.928" height="44.1716" fill="white" transform="translate(0.14563 13.7776)"/>
</clipPath>
</defs>
</svg>
