<svg width="195" height="81" viewBox="0 0 195 81" fill="none" xmlns="http://www.w3.org/2000/svg">
<path d="M10.4578 30.3768C9.34824 30.3768 8.31193 30.2408 7.3489 29.9686C6.38586 29.6964 5.52751 29.3196 4.77383 28.8381C4.02015 28.3356 3.39209 27.7808 2.88963 27.1737C2.40812 26.5666 2.09409 25.928 1.94754 25.2581L6.15557 24.002C6.42773 24.7138 6.90925 25.3314 7.60012 25.8548C8.29099 26.3572 9.15982 26.6189 10.2066 26.6399C11.3162 26.6608 12.2164 26.42 12.9073 25.9176C13.6191 25.4151 13.975 24.7661 13.975 23.9706C13.975 23.2797 13.6924 22.704 13.1271 22.2434C12.5828 21.7619 11.8291 21.3955 10.8661 21.1443L8.00837 20.3906C6.94065 20.1184 5.99856 19.7102 5.18207 19.1659C4.36559 18.6006 3.72705 17.9097 3.26647 17.0933C2.80589 16.2768 2.5756 15.3242 2.5756 14.2356C2.5756 12.163 3.25601 10.5509 4.61681 9.39946C5.99856 8.22708 7.94556 7.64088 10.4578 7.64088C11.8605 7.64088 13.0852 7.85024 14.132 8.26895C15.1997 8.66672 16.0895 9.24245 16.8013 9.99613C17.5131 10.7498 18.0574 11.6396 18.4342 12.6654L14.2576 13.9529C14.0064 13.2411 13.5458 12.634 12.8759 12.1315C12.2059 11.6291 11.358 11.3779 10.3322 11.3779C9.28543 11.3779 8.45848 11.6186 7.85135 12.1001C7.26515 12.5817 6.97206 13.2621 6.97206 14.1414C6.97206 14.8322 7.20235 15.3765 7.66293 15.7743C8.14445 16.1721 8.79345 16.4757 9.60993 16.685L12.499 17.4073C14.3832 17.8679 15.8487 18.6948 16.8955 19.8882C17.9423 21.0815 18.4657 22.4109 18.4657 23.8764C18.4657 25.1744 18.1516 26.3154 17.5236 27.2993C16.8955 28.2624 15.9848 29.016 14.7915 29.5604C13.5981 30.1047 12.1536 30.3768 10.4578 30.3768ZM31.8881 30.3768C29.6689 30.3768 27.701 29.8953 25.9843 28.9323C24.2885 27.9483 22.9591 26.6084 21.9961 24.9127C21.033 23.196 20.5515 21.2385 20.5515 19.0403C20.5515 16.8002 21.033 14.8322 21.9961 13.1365C22.9591 11.4197 24.278 10.0799 25.9529 9.11683C27.6486 8.1538 29.5956 7.67228 31.7939 7.67228C34.013 7.67228 35.96 8.16427 37.6349 9.14824C39.3307 10.1113 40.6601 11.4511 41.6231 13.1679C42.5861 14.8636 43.0676 16.8211 43.0676 19.0403C43.0676 21.2385 42.5861 23.196 41.6231 24.9127C40.681 26.6084 39.3621 27.9483 37.6663 28.9323C35.9914 29.8953 34.0654 30.3768 31.8881 30.3768ZM31.8881 26.4514C33.228 26.4514 34.4003 26.1374 35.4053 25.5093C36.4311 24.8603 37.2266 23.981 37.7919 22.8715C38.3781 21.7619 38.6712 20.4848 38.6712 19.0403C38.6712 17.5748 38.3781 16.2872 37.7919 15.1777C37.2057 14.0681 36.3997 13.1993 35.3738 12.5712C34.348 11.9222 33.1547 11.5977 31.7939 11.5977C30.4749 11.5977 29.2921 11.9222 28.2453 12.5712C27.2195 13.1993 26.4135 14.0681 25.8273 15.1777C25.2411 16.2872 24.948 17.5748 24.948 19.0403C24.948 20.4848 25.2411 21.7619 25.8273 22.8715C26.4135 23.981 27.2299 24.8603 28.2767 25.5093C29.3235 26.1374 30.5273 26.4514 31.8881 26.4514ZM55.9464 30.3768C53.811 30.3768 51.9163 29.8953 50.2624 28.9323C48.6085 27.9483 47.3105 26.6084 46.3684 24.9127C45.4263 23.196 44.9553 21.228 44.9553 19.0089C44.9553 16.7897 45.4263 14.8322 46.3684 13.1365C47.3105 11.4197 48.5981 10.0799 50.231 9.11683C51.8849 8.13287 53.7796 7.64088 55.915 7.64088C57.4224 7.64088 58.825 7.91304 60.123 8.45737C61.4211 8.98075 62.5516 9.72396 63.5146 10.687C64.4986 11.6291 65.2522 12.7177 65.7756 13.9529L61.7874 15.4289C61.4315 14.6543 60.9605 13.9843 60.3743 13.4191C59.7881 12.8329 59.1181 12.3828 58.3645 12.0687C57.6108 11.7338 56.7943 11.5663 55.915 11.5663C54.6379 11.5663 53.497 11.8908 52.4921 12.5398C51.5081 13.1679 50.7335 14.0367 50.1682 15.1463C49.6239 16.2558 49.3517 17.5434 49.3517 19.0089C49.3517 20.4743 49.6344 21.7723 50.1996 22.9029C50.7649 24.0124 51.55 24.8917 52.5549 25.5407C53.5598 26.1688 54.7112 26.4828 56.0092 26.4828C56.9094 26.4828 57.7259 26.3154 58.4587 25.9804C59.2124 25.6245 59.8718 25.143 60.4371 24.5358C61.0233 23.9287 61.4943 23.2274 61.8502 22.4318L65.8384 23.8764C65.3151 25.1534 64.5614 26.2839 63.5774 27.2679C62.6144 28.2519 61.4839 29.016 60.1859 29.5604C58.8879 30.1047 57.4747 30.3768 55.9464 30.3768ZM75.0676 30V26.8283C75.0676 26.2211 75.256 25.5512 75.6328 24.8185C76.0097 24.0857 76.533 23.353 77.203 22.6202C77.8729 21.8875 78.658 21.2071 79.5582 20.579L82.887 18.1924C83.3476 17.8783 83.7767 17.5224 84.1745 17.1247C84.5932 16.7269 84.9282 16.2977 85.1794 15.8371C85.4516 15.3556 85.5877 14.895 85.5877 14.4554C85.5877 13.9111 85.4516 13.4191 85.1794 12.9794C84.9282 12.5398 84.5513 12.1944 84.0489 11.9431C83.5464 11.6919 82.9288 11.5663 82.1961 11.5663C81.568 11.5663 81.0028 11.6919 80.5003 11.9431C80.0188 12.1944 79.621 12.5293 79.307 12.948C78.993 13.3667 78.7731 13.8169 78.6475 14.2984L74.2197 13.5447C74.429 12.4979 74.8791 11.5244 75.57 10.6242C76.2609 9.72396 77.1611 9.00169 78.2707 8.45737C79.4012 7.89211 80.6783 7.60948 82.1019 7.60948C83.7349 7.60948 85.1375 7.90257 86.3099 8.48877C87.4823 9.07496 88.3825 9.88098 89.0106 10.9068C89.6596 11.9117 89.9841 13.0841 89.9841 14.424C89.9841 15.7848 89.6073 16.9991 88.8536 18.0668C88.1208 19.1135 87.1055 20.0975 85.8075 21.0187L82.8242 23.1855C82.217 23.6042 81.6936 24.0648 81.254 24.5672C80.8144 25.0697 80.4794 25.6245 80.2491 26.2316H90.2667V30H75.0676Z" fill="#0870BC"/>
<path d="M105.855 30V10.4358H98.8518V8.01772H115.496V10.4358H108.493V30H105.855ZM126.291 20.8617L123.998 19.7625L131.158 8.01772H134.204L126.291 20.8617ZM123.684 30V19.4485H126.322V30H123.684ZM123.716 20.8617L115.802 8.01772H118.88L126.008 19.7625L123.716 20.8617ZM137.078 30V8.01772H144.238C145.662 8.01772 146.918 8.31082 148.007 8.89701C149.116 9.4832 149.974 10.2997 150.582 11.3465C151.21 12.3932 151.524 13.6075 151.524 14.9892C151.524 16.3291 151.241 17.5224 150.676 18.5692C150.111 19.616 149.336 20.4429 148.352 21.0501C147.368 21.6363 146.227 21.9294 144.929 21.9294H139.747V30H137.078ZM139.747 19.5113H144.929C146.08 19.5113 147.023 19.0926 147.755 18.2552C148.509 17.3968 148.886 16.3082 148.886 14.9892C148.886 13.6284 148.446 12.5293 147.567 11.6919C146.688 10.8545 145.568 10.4358 144.207 10.4358H139.747V19.5113ZM154.95 30V8.01772H167.951V10.4358H157.619V17.5329H167.04V19.9196H157.619V27.5819H168.014V30H154.95ZM180.665 30V8.01772H183.334V30H180.665ZM188.876 30V8.01772H191.546V30H188.876Z" fill="#002244"/>
<rect x="11.4375" y="42.9727" width="178.503" height="37.1881" rx="1.6528" fill="#0870BC"/>
<path d="M45.0411 62.0486L47.7269 64.7344L52.2032 58.4676M59.3653 61.1534C59.3653 62.6673 58.6138 64.0057 57.4634 64.8158C57.7038 66.202 57.2888 67.6796 56.2185 68.7499C55.1481 69.8203 53.6705 70.2353 52.2844 69.9949C51.4743 71.1451 50.136 71.8966 48.6221 71.8966C47.1083 71.8966 45.7701 71.1452 44.9599 69.995C43.5736 70.2357 42.0957 69.8207 41.0251 68.7502C39.9546 67.6796 39.5396 66.2017 39.7803 64.8154C38.6302 64.0053 37.8789 62.6671 37.8789 61.1534C37.8789 59.6396 38.6303 58.3014 39.7804 57.4912C39.5399 56.105 39.9549 54.6273 41.0253 53.5568C42.0958 52.4863 43.5736 52.0714 44.9598 52.3119C45.7699 51.1616 47.1083 50.4102 48.6221 50.4102C50.1359 50.4102 51.4742 51.1616 52.2843 52.3118C53.6707 52.0711 55.1486 52.4861 56.2191 53.5566C57.2897 54.6272 57.7046 56.105 57.464 57.4913C58.614 58.3015 59.3653 59.6397 59.3653 61.1534Z" stroke="white" stroke-width="1.6528" stroke-linecap="round" stroke-linejoin="round"/>
<path d="M75.3045 68.822C73.9823 68.822 72.8055 68.5179 71.7741 67.9096C70.7428 67.2882 69.9362 66.442 69.3544 65.3709C68.7726 64.2867 68.4818 63.0438 68.4818 61.6422C68.4818 60.2406 68.7726 59.0043 69.3544 57.9333C69.9362 56.8491 70.7362 56.0028 71.7543 55.3946C72.7724 54.7732 73.9426 54.4624 75.2649 54.4624C76.1243 54.4624 76.9441 54.6211 77.7242 54.9384C78.5043 55.2426 79.1985 55.6723 79.8068 56.2276C80.4282 56.7697 80.9042 57.4044 81.2348 58.1317L79.4894 58.925C79.2382 58.3829 78.8944 57.9135 78.4581 57.5168C78.0217 57.1201 77.5259 56.8094 76.9705 56.5846C76.4284 56.3599 75.8599 56.2475 75.2649 56.2475C74.3393 56.2475 73.5129 56.4789 72.7857 56.9416C72.0584 57.4044 71.4899 58.0391 71.08 58.8457C70.6701 59.6522 70.4651 60.5844 70.4651 61.6422C70.4651 62.7 70.6701 63.6388 71.08 64.4586C71.5031 65.2784 72.0783 65.9197 72.8055 66.3825C73.5459 66.832 74.3856 67.0568 75.3244 67.0568C75.9326 67.0568 76.5078 66.9378 77.0499 66.6998C77.592 66.4486 78.0746 66.1114 78.4977 65.6883C78.9341 65.2519 79.2845 64.7561 79.5489 64.2008L81.2943 64.9743C80.9637 65.7279 80.4943 66.3957 79.8861 66.9775C79.2779 67.5592 78.5771 68.0154 77.7837 68.346C77.0036 68.6633 76.1772 68.822 75.3045 68.822ZM83.5093 68.584V54.7004H91.8593V56.4855H85.453V60.6109H91.2246V62.3562H85.453V66.799H91.8989V68.584H83.5093ZM95.0291 68.584V54.7004H99.7098C100.635 54.7004 101.449 54.8856 102.149 55.2558C102.863 55.6128 103.419 56.1152 103.815 56.7631C104.225 57.3978 104.43 58.1383 104.43 58.9845C104.43 59.8175 104.212 60.558 103.776 61.2059C103.353 61.8538 102.771 62.3628 102.03 62.7331C101.29 63.0901 100.457 63.2686 99.5313 63.2686H96.9728V68.584H95.0291ZM102.784 68.584L99.4916 62.9116L101.039 61.8802L104.986 68.584H102.784ZM96.9728 61.4835H99.8883C100.364 61.4835 100.787 61.3778 101.158 61.1662C101.541 60.9414 101.845 60.6439 102.07 60.2737C102.308 59.8902 102.427 59.4605 102.427 58.9845C102.427 58.244 102.169 57.6424 101.654 57.1796C101.138 56.7169 100.47 56.4855 99.6503 56.4855H96.9728V61.4835ZM110.043 68.584V56.4855H105.7V54.7004H116.35V56.4855H112.007V68.584H110.043ZM118.146 68.584V54.7004H120.09V68.584H118.146ZM123.429 68.584V54.7004H131.839V56.4855H125.373V60.8489H131.006V62.6339H125.373V68.584H123.429ZM134.058 68.584V54.7004H136.002V68.584H134.058ZM139.341 68.584V54.7004H147.691V56.4855H141.285V60.6109H147.056V62.3562H141.285V66.799H147.731V68.584H139.341ZM150.861 68.584V54.7004H155.145C156.467 54.7004 157.637 54.9979 158.655 55.593C159.687 56.1747 160.493 56.9879 161.075 58.0325C161.657 59.0771 161.948 60.2803 161.948 61.6422C161.948 62.9909 161.657 64.1875 161.075 65.2321C160.493 66.2767 159.687 67.0965 158.655 67.6915C157.637 68.2865 156.467 68.584 155.145 68.584H150.861ZM152.804 66.7593H155.145C155.819 66.7593 156.447 66.6337 157.029 66.3825C157.611 66.118 158.12 65.7544 158.556 65.2916C159.006 64.8156 159.35 64.2669 159.588 63.6454C159.839 63.024 159.964 62.3562 159.964 61.6422C159.964 60.9282 159.839 60.2605 159.588 59.639C159.35 59.0176 159.006 58.4754 158.556 58.0127C158.12 57.5366 157.611 57.173 157.029 56.9218C156.447 56.6574 155.819 56.5251 155.145 56.5251H152.804V66.7593Z" fill="white"/>
</svg>
