<svg width="179" height="81" viewBox="0 0 179 81" fill="none" xmlns="http://www.w3.org/2000/svg">
<path d="M60.1591 30.3768C57.919 30.3768 55.9301 29.8953 54.1925 28.9323C52.4758 27.9483 51.1254 26.6084 50.1415 24.9127C49.1575 23.196 48.6655 21.228 48.6655 19.0089C48.6655 16.7897 49.1575 14.8322 50.1415 13.1365C51.1254 11.4197 52.4758 10.0799 54.1925 9.11683C55.9301 8.13287 57.919 7.64088 60.1591 7.64088C61.499 7.64088 62.7342 7.83977 63.8647 8.23754C64.9952 8.63532 65.9896 9.19011 66.848 9.90192C67.7273 10.5928 68.46 11.3883 69.0462 12.2886L65.5291 14.4868C65.1732 13.9215 64.7021 13.4191 64.1159 12.9794C63.5507 12.5398 62.9226 12.1944 62.2317 11.9431C61.5409 11.6919 60.85 11.5663 60.1591 11.5663C58.7774 11.5663 57.5526 11.8908 56.4849 12.5398C55.4172 13.1679 54.5798 14.0367 53.9727 15.1463C53.3655 16.2558 53.062 17.5434 53.062 19.0089C53.062 20.4534 53.3551 21.7409 53.9413 22.8715C54.5484 24.002 55.3963 24.8917 56.4849 25.5407C57.5736 26.1688 58.8297 26.4828 60.2533 26.4828C61.3629 26.4828 62.3469 26.263 63.2052 25.8234C64.0845 25.3837 64.7754 24.7661 65.2778 23.9706C65.7803 23.175 66.0315 22.2539 66.0315 21.2071L70.1139 20.579C70.1139 22.6516 69.6848 24.4207 68.8264 25.8862C67.989 27.3517 66.8166 28.4717 65.3092 29.2463C63.8228 30 62.1061 30.3768 60.1591 30.3768ZM60.8814 21.5839V18.2238H70.1139V20.8931L67.7901 21.5839H60.8814ZM72.9768 30V8.01772H80.0111C82.2512 8.01772 84.2296 8.48877 85.9463 9.43087C87.684 10.373 89.0343 11.671 89.9974 13.3249C90.9813 14.9578 91.4733 16.8525 91.4733 19.0089C91.4733 21.1443 90.9813 23.0389 89.9974 24.6928C89.0343 26.3468 87.684 27.6448 85.9463 28.5869C84.2296 29.529 82.2512 30 80.0111 30H72.9768ZM77.279 25.9804H80.0111C81.016 25.9804 81.9477 25.8024 82.806 25.4465C83.6644 25.0906 84.4076 24.5986 85.0356 23.9706C85.6846 23.3425 86.1871 22.6098 86.543 21.7723C86.8989 20.914 87.0769 19.9928 87.0769 19.0089C87.0769 18.0249 86.8989 17.1142 86.543 16.2768C86.1871 15.4184 85.6846 14.6752 85.0356 14.0471C84.4076 13.4191 83.6644 12.9271 82.806 12.5712C81.9477 12.2153 81.016 12.0373 80.0111 12.0373H77.279V25.9804ZM94.6512 30V8.01772H102.816C104.365 8.01772 105.737 8.33175 106.93 8.95982C108.123 9.56695 109.055 10.4253 109.725 11.5349C110.395 12.6235 110.73 13.8901 110.73 15.3347C110.73 16.7583 110.405 18.0249 109.756 19.1345C109.107 20.2441 108.217 21.1233 107.087 21.7723C105.956 22.4004 104.648 22.7144 103.161 22.7144H98.9534V30H94.6512ZM98.9534 18.7576H103.067C104.03 18.7576 104.815 18.4436 105.422 17.8155C106.051 17.1665 106.365 16.3396 106.365 15.3347C106.365 14.3298 106.019 13.5133 105.328 12.8852C104.658 12.2572 103.79 11.9431 102.722 11.9431H98.9534V18.7576ZM113.259 30V8.01772H121.424C122.973 8.01772 124.344 8.32128 125.538 8.92842C126.731 9.53554 127.662 10.373 128.332 11.4407C129.002 12.4875 129.337 13.7122 129.337 15.1149C129.337 16.4966 128.981 17.7318 128.27 18.8204C127.579 19.8882 126.626 20.7256 125.412 21.3327C124.198 21.9189 122.816 22.212 121.267 22.212H117.561V30H113.259ZM125.349 30L120.262 21.1757L123.559 18.8204L130.217 30H125.349ZM117.561 18.2866H121.455C122.104 18.2866 122.68 18.1505 123.182 17.8783C123.706 17.6062 124.114 17.2293 124.407 16.7478C124.721 16.2663 124.878 15.722 124.878 15.1149C124.878 14.1728 124.533 13.4086 123.842 12.8224C123.172 12.2362 122.303 11.9431 121.235 11.9431H117.561V18.2866Z" fill="#0870BC"/>
<rect x="0.460938" y="42.9727" width="178.503" height="37.1881" rx="1.6528" fill="#0870BC"/>
<path d="M34.0279 59.024V54.7331C34.0279 51.8893 31.7225 49.584 28.8787 49.584C26.035 49.584 23.7296 51.8893 23.7296 54.7331V59.024M22.8714 71.8968H34.886C36.3079 71.8968 37.4606 70.7442 37.4606 69.3223V61.5986C37.4606 60.1767 36.3079 59.024 34.886 59.024H22.8714C21.4495 59.024 20.2969 60.1767 20.2969 61.5986V69.3223C20.2969 70.7442 21.4495 71.8968 22.8714 71.8968Z" stroke="white" stroke-width="1.6528" stroke-linecap="round" stroke-linejoin="round"/>
<path d="M53.4022 68.822C52.0799 68.822 50.9031 68.5179 49.8718 67.9096C48.8404 67.2882 48.0339 66.442 47.4521 65.3709C46.8703 64.2867 46.5794 63.0438 46.5794 61.6422C46.5794 60.2406 46.8703 59.0043 47.4521 57.9333C48.0339 56.8491 48.8338 56.0028 49.852 55.3946C50.8701 54.7732 52.0403 54.4624 53.3625 54.4624C54.222 54.4624 55.0418 54.6211 55.8219 54.9384C56.602 55.2426 57.2962 55.6723 57.9044 56.2276C58.5259 56.7697 59.0019 57.4044 59.3324 58.1317L57.5871 58.925C57.3359 58.3829 56.9921 57.9135 56.5557 57.5168C56.1194 57.1201 55.6235 56.8094 55.0682 56.5846C54.5261 56.3599 53.9575 56.2475 53.3625 56.2475C52.4369 56.2475 51.6105 56.4789 50.8833 56.9416C50.1561 57.4044 49.5875 58.0391 49.1776 58.8457C48.7677 59.6522 48.5628 60.5844 48.5628 61.6422C48.5628 62.7 48.7677 63.6388 49.1776 64.4586C49.6007 65.2784 50.1759 65.9197 50.9031 66.3825C51.6436 66.832 52.4832 67.0568 53.422 67.0568C54.0302 67.0568 54.6054 66.9378 55.1475 66.6998C55.6897 66.4486 56.1723 66.1114 56.5954 65.6883C57.0317 65.2519 57.3821 64.7561 57.6466 64.2008L59.3919 64.9743C59.0614 65.7279 58.592 66.3957 57.9837 66.9775C57.3755 67.5592 56.6747 68.0154 55.8814 68.346C55.1013 68.6633 54.2749 68.822 53.4022 68.822ZM67.6165 68.822C66.2679 68.822 65.0712 68.5179 64.0267 67.9096C62.9821 67.3014 62.1623 66.4552 61.5673 65.3709C60.9855 64.2867 60.6946 63.0438 60.6946 61.6422C60.6946 60.2406 60.9855 59.0043 61.5673 57.9333C62.1623 56.8491 62.9755 56.0028 64.0068 55.3946C65.0382 54.7732 66.2282 54.4624 67.5769 54.4624C68.9256 54.4624 70.1156 54.7732 71.1469 55.3946C72.1783 56.0028 72.9848 56.8491 73.5666 57.9333C74.1484 59.0043 74.4393 60.2406 74.4393 61.6422C74.4393 63.0438 74.1484 64.2867 73.5666 65.3709C72.9848 66.4552 72.1783 67.3014 71.1469 67.9096C70.1288 68.5179 68.952 68.822 67.6165 68.822ZM67.6165 67.037C68.5686 67.037 69.4082 66.8056 70.1354 66.3428C70.8626 65.88 71.4312 65.2453 71.8411 64.4388C72.251 63.6322 72.456 62.7 72.456 61.6422C72.456 60.5976 72.2444 59.6721 71.8213 58.8655C71.4114 58.0457 70.8362 57.4044 70.0957 56.9416C69.3685 56.4789 68.5289 56.2475 67.5769 56.2475C66.6249 56.2475 65.7786 56.4789 65.0382 56.9416C64.2977 57.4044 63.7159 58.0457 63.2928 58.8655C62.8829 59.6721 62.678 60.5976 62.678 61.6422C62.678 62.7 62.8895 63.6322 63.3126 64.4388C63.7358 65.2453 64.3175 65.88 65.058 66.3428C65.8117 66.8056 66.6645 67.037 67.6165 67.037ZM76.8649 68.584V54.7004H78.9276L83.529 61.5034L88.1106 54.7004H90.1733V68.584H88.2296V57.8342L83.5092 64.7958L78.8086 57.854V68.584H76.8649ZM93.498 68.584V54.7004H98.1788C99.1044 54.7004 99.9175 54.8922 100.618 55.2756C101.332 55.6458 101.888 56.1681 102.284 56.8425C102.694 57.5036 102.899 58.2771 102.899 59.163C102.899 60.0225 102.714 60.7894 102.344 61.4637C101.974 62.1381 101.458 62.6669 100.797 63.0504C100.149 63.4339 99.4019 63.6256 98.5556 63.6256H95.4417V68.584H93.498ZM95.4417 61.8207H98.5358C99.2366 61.8207 99.8118 61.5761 100.261 61.0869C100.711 60.5844 100.936 59.9431 100.936 59.163C100.936 58.3564 100.671 57.7085 100.142 57.2193C99.6266 56.7301 98.9655 56.4855 98.1589 56.4855H95.4417V61.8207ZM104.921 68.584V54.7004H106.865V66.799H113.311V68.584H104.921ZM115.124 68.584V54.7004H117.067V68.584H115.124ZM130.006 68.584L124.512 54.7004H126.496L132.089 68.584H130.006ZM118.82 68.584L124.413 54.7004H126.396L120.903 68.584H118.82ZM121.458 64.8751V63.1297H129.451V64.8751H121.458ZM133.825 68.584V54.7004H135.828L143.682 65.3313V54.7004H145.645V68.584H143.682L135.768 57.854V68.584H133.825ZM151.802 68.584V56.4855H147.459V54.7004H158.109V56.4855H153.766V68.584H151.802Z" fill="white"/>
</svg>
