<svg width="100%" height="100%" viewBox="0 0 24 24" fill="none" xmlns="http://www.w3.org/2000/svg">
<path d="M8.93272 18.0301H6.23241V9.32852H8.93272V18.0301ZM7.58039 8.14564C7.26946 8.14713 6.96506 8.05644 6.70566 7.885C6.44625 7.71357 6.24348 7.4691 6.12296 7.18247C6.00244 6.89584 5.96958 6.57992 6.02853 6.27463C6.08748 5.96933 6.2356 5.68836 6.45417 5.46721C6.67274 5.24606 6.95196 5.09466 7.25654 5.03213C7.56112 4.9696 7.8774 4.99876 8.16542 5.11591C8.45345 5.23306 8.70028 5.43295 8.87474 5.69033C9.04921 5.94771 9.14347 6.25102 9.14562 6.56195C9.14707 6.97922 8.98321 7.38008 8.68989 7.67687C8.39657 7.97365 7.99765 8.14219 7.58039 8.14564ZM19.0497 18.0301H16.3504V13.7939C16.3504 12.7848 16.3298 11.4901 14.946 11.4901C13.5415 11.4901 13.3253 12.5871 13.3253 13.7211V18.0301H10.625V9.32852H13.2178V10.5157H13.2558C13.5149 10.0722 13.8894 9.7072 14.3395 9.45968C14.7896 9.21216 15.2984 9.09138 15.8117 9.11019C18.5467 9.11019 19.0497 10.9111 19.0497 13.2508V18.0301Z" fill="currentColor"></path>
</svg>