<svg width="148" height="70" viewBox="0 0 148 70" fill="none" xmlns="http://www.w3.org/2000/svg">
<mask id="mask0_118_899" style="mask-type:luminance" maskUnits="userSpaceOnUse" x="0" y="12" width="148" height="46">
<path d="M147.927 12.811H0V57.189H147.927V12.811Z" fill="white"/>
</mask>
<g mask="url(#mask0_118_899)">
<path d="M53.9922 28.7868L46.5191 48.3131H40.8012L33.2837 28.7868H39.8137L43.8787 41.6231L47.9438 28.7868H53.9922ZM72.6461 38.044C72.6461 32.1839 69.3046 28.1211 63.296 28.1211C56.382 28.1211 53.2956 32.7032 53.2956 38.6364C53.2956 45.0491 56.8169 48.9699 64.1413 48.9788C66.5243 48.9788 69.0583 48.586 71.2882 47.4499L71.7653 42.504C69.6752 43.4715 67.3963 43.9596 65.0955 43.933C62.1842 43.933 60.3736 43.2517 59.7302 40.76H72.4997C72.5751 40.0365 72.6505 38.7918 72.6461 38.044ZM59.5728 36.9812C59.8011 34.4117 60.7864 33.1225 63.2005 33.1291C65.3151 33.1291 66.5643 34.4516 66.602 36.9812H59.5728ZM84.466 28.1211C82.9173 28.1211 81.0201 29.1151 80.1148 31.4228L79.7243 28.7868H74.4035V48.3153H80.5985V35.6587C81.2421 34.1432 82.5289 33.3533 84.4904 33.3533C85.1738 33.3577 85.844 33.5508 86.4827 33.7971L87.095 29.0463C86.31 28.587 85.3757 28.1078 84.466 28.1211ZM103.506 26.7898H109.701V21.7017H103.506V26.7898ZM103.506 48.3131H109.701V28.7868H103.506V48.3131ZM122.106 48.9788C123.717 48.9699 125.31 48.5705 126.79 47.9314L127.259 42.8767C125.828 43.4936 124.281 43.8021 122.724 43.7821C120.379 43.7821 117.887 42.3532 117.887 38.6453C117.887 34.9375 120.192 33.5729 122.874 33.5729C124.248 33.5463 125.612 33.7393 126.882 34.2652L127.358 29.4657C125.742 28.7091 123.947 28.0833 122.163 28.1188C115.586 28.1188 111.543 32.3681 111.543 38.6387C111.543 44.9093 115.536 48.9832 122.106 48.9788ZM95.2805 40.76V33.351H100.746L101.139 28.7868H95.2805L95.3028 21.6862C95.3028 21.6862 89.7841 21.6995 88.9129 25.5117C88.8214 25.9288 88.7795 26.3526 88.7837 26.7786V41.5498C88.7837 46.2717 91.5815 48.8013 96.4947 48.8013C97.861 48.8013 99.2121 48.6858 100.526 48.3108L100.95 43.4359C99.9937 43.7178 98.9992 43.8442 98.0057 43.8131C96.0373 43.7754 95.2805 42.7947 95.2805 40.76ZM147.557 38.044C147.557 32.1839 144.212 28.1211 138.205 28.1211C131.29 28.1211 128.205 32.7032 128.205 38.6364C128.205 45.0491 131.725 48.9699 139.05 48.9788C141.433 48.9788 143.967 48.586 146.196 47.4499L146.673 42.504C144.584 43.4715 142.304 43.9596 140.004 43.933C137.092 43.933 135.282 43.2517 134.638 40.76H147.408C147.483 40.0365 147.561 38.7918 147.557 38.044ZM134.483 36.9812C134.713 34.4117 135.694 33.1225 138.11 33.1291C140.224 33.1291 141.472 34.4516 141.511 36.9812H134.483Z" fill="black"/>
<path d="M25.4866 13.0754C24.7075 12.7692 23.8733 12.7182 23.1433 12.9844C22.7992 13.1109 22.3133 13.3128 21.8628 13.6923L8.98128 24.4095C10.69 26.462 13.2351 27.6692 15.9136 27.6892L9.7269 43.39C7.34585 36.4782 4.47884 28.1529 4.47884 28.1529L2.96101 29.4154C0.426864 31.4679 -0.687097 34.9605 0.437959 38.2222L6.152 54.7975C6.48041 55.7427 7.19939 56.5459 8.20461 56.9409C10.0287 57.6598 12.0901 56.7634 12.809 54.9394L27.4881 17.6774C28.207 15.8535 27.3106 13.7943 25.4866 13.0754Z" fill="url(#paint0_linear_118_899)"/>
</g>
<defs>
<linearGradient id="paint0_linear_118_899" x1="-6.9777e-07" y1="57.1889" x2="8.05491" y2="9.48846" gradientUnits="userSpaceOnUse">
<stop stop-color="#0041C2"/>
<stop offset="1" stop-color="#8B42FF"/>
</linearGradient>
</defs>
</svg>
