<svg width="167" height="72" viewBox="0 0 167 72" fill="none" xmlns="http://www.w3.org/2000/svg">
<g clip-path="url(#clip0_131_2169)">
<path d="M156.686 26.6706C158.027 26.6706 159.115 27.782 159.115 29.1527V45.2853C159.115 46.6562 158.027 47.7676 156.686 47.7676C155.344 47.7676 154.257 46.6562 154.257 45.2853V29.1527C154.257 27.782 155.344 26.6706 156.686 26.6706Z" fill="#1771F1"/>
<path d="M156.687 22.6024C158.364 22.6024 159.724 21.2529 159.724 19.5885C159.724 17.9241 158.364 16.5746 156.687 16.5746C155.01 16.5746 153.651 17.9241 153.651 19.5885C153.651 21.2529 155.01 22.6024 156.687 22.6024Z" fill="#1771F1"/>
<path d="M142.352 47.7493C144.302 47.7493 146.635 46.7851 147.284 45.1773C147.254 46.5688 148.542 47.7493 149.874 47.7493C151.207 47.7493 152.458 46.5613 152.464 45.1773V37.2514C152.574 31.4535 148.285 26.746 142.7 26.746C137.116 26.746 132.493 31.4535 132.384 37.2514C132.304 43.0417 136.776 47.7493 142.352 47.7493ZM142.635 31.739C145.561 31.739 147.909 34.2132 147.844 37.2514C147.792 40.2897 145.358 42.7639 142.433 42.7639C139.507 42.7639 137.159 40.2897 137.224 37.2514C137.276 34.2057 139.708 31.739 142.635 31.739Z" fill="#1771F1"/>
<path d="M128.159 47.7729C129.836 47.7729 131.196 46.4234 131.196 44.759C131.196 43.0946 129.836 41.7452 128.159 41.7452C126.482 41.7452 125.124 43.0946 125.124 44.759C125.124 46.4234 126.482 47.7729 128.159 47.7729Z" fill="#1771F1"/>
<path d="M113.936 26.7643C108.337 26.7643 103.715 31.4718 103.62 37.2696C103.527 43.0674 107.982 47.775 113.566 47.775C119.151 47.775 123.773 43.0674 123.882 37.2696C123.968 31.4718 119.521 26.7643 113.936 26.7643ZM113.655 42.7746C110.727 42.7746 108.38 40.3002 108.446 37.2621C108.496 34.2239 110.931 31.7496 113.857 31.7496C116.783 31.7496 119.131 34.2239 119.065 37.2621C119 40.3078 116.587 42.7746 113.655 42.7746Z" fill="#1771F1"/>
<path d="M92.4301 26.7646C90.4811 26.7646 88.6488 27.336 87.0842 28.3288L87.2506 19.0864C87.2793 17.695 86.2149 16.5746 84.8818 16.5746C83.5488 16.5746 82.4479 17.695 82.4403 19.0789L82.1362 37.2624C82.0273 43.0602 86.4971 47.7677 92.082 47.7677C97.6671 47.7677 102.289 43.0602 102.398 37.2624C102.477 31.4721 98.0082 26.7646 92.4301 26.7646ZM92.1479 42.7748C89.2215 42.7748 86.8738 40.3006 86.9397 37.2624C86.9904 34.2242 89.4242 31.7499 92.3507 31.7499C95.2771 31.7499 97.6247 34.2242 97.5589 37.2624C97.5082 40.3081 95.0743 42.7748 92.1479 42.7748Z" fill="#1771F1"/>
<path d="M70.4356 26.7644C67.3496 26.7644 64.5389 28.2009 62.6482 30.4792C60.8303 28.2009 58.099 26.817 54.991 26.7644C47.2619 26.6217 44.7841 31.4719 44.6751 37.2697L44.545 45.2857C44.5163 46.6697 45.5808 47.7901 46.9138 47.7901C48.247 47.7901 49.3477 46.6697 49.3553 45.2857L49.4855 37.2697C49.5362 34.2315 51.97 31.7572 54.8964 31.7572C57.8229 31.7572 60.1704 34.2315 60.1054 37.2697L59.9753 45.2857C59.9466 46.6697 61.011 47.7901 62.3441 47.7901C63.6771 47.7901 64.778 46.6697 64.7855 45.2857L64.9156 37.2697C64.9663 34.2315 67.4002 31.7572 70.3266 31.7572C73.253 31.7572 75.6007 34.2315 75.5348 37.2697L75.4047 45.2857C75.376 46.6697 76.4405 47.7901 77.7736 47.7901C79.1067 47.7901 80.2074 46.6697 80.215 45.2857L80.3452 37.2697C80.4904 31.4719 76.0213 26.7644 70.4356 26.7644Z" fill="#1771F1"/>
<path d="M32.5584 26.7712C26.7774 26.8238 22.0254 31.4562 21.9747 37.2697C21.9021 43.0826 26.5316 47.8683 32.2913 47.7931C34.903 47.7939 37.2241 47.4454 39.2382 45.572C40.2595 44.6318 40.3609 43.0451 39.4333 42.0373C38.5277 41.0221 36.9776 41.0552 35.8328 41.8677C34.5361 42.7928 33.4398 42.9843 32.6235 42.9843C29.9657 43.0128 28.2452 41.3721 27.4243 39.6036L40.3458 39.5954C41.7151 39.5803 42.8674 38.4051 42.9037 37.037C42.962 31.2391 38.3257 26.7194 32.5592 26.772L32.5584 26.7712ZM27.1845 35.6448C27.7307 33.8058 29.6109 31.6356 32.5001 31.6364C35.1844 31.6364 37.2893 33.5482 37.837 35.6448H27.1845Z" fill="#1771F1"/>
<path d="M17.8719 26.7797C16.5388 26.7947 15.4599 27.9377 15.4448 29.3065L15.4373 29.5927L15.401 35.1952C15.3866 38.2334 12.9958 40.7452 10.0694 40.7754C7.1498 40.8128 4.78855 38.3611 4.80293 35.3161L4.84605 29.4357C4.86043 28.0518 3.7808 26.9464 2.46285 26.9614C1.12977 26.9764 0.0509088 28.1194 0.0357774 29.4882L0.00021866 35.3672C-0.0360966 41.18 4.45566 45.835 10.0331 45.7825C11.8874 45.7675 13.6192 45.211 15.1256 44.2859C15.0968 45.817 14.627 47.2655 14.2775 47.8572C13.4081 49.4739 11.9736 50.2264 9.75013 50.2264C7.92453 50.2264 6.37432 49.6624 5.27351 48.5946C4.31721 47.662 2.81012 47.7145 1.91963 48.7148C1.02159 49.7075 1.07227 51.2716 2.03539 52.1967C3.99869 54.107 6.73671 55.1524 9.75013 55.1524C14.7487 55.1524 17.2258 52.4903 18.4287 50.2496C19.0188 49.1863 19.8238 47.0094 19.8677 44.5179L20.2248 35.1337L20.2612 29.5311L20.2679 29.245C20.2612 27.861 19.1815 26.7632 17.8704 26.7782L17.8719 26.7797Z" fill="#1771F1"/>
<path fill-rule="evenodd" clip-rule="evenodd" d="M163.931 41.9582C162.375 41.9582 161.115 43.2102 161.115 44.7541C161.115 46.2982 162.375 47.5502 163.931 47.5502C165.488 47.5502 166.749 46.2982 166.749 44.7541C166.749 43.2102 165.487 41.9582 163.931 41.9582ZM160.895 44.7541C160.895 43.0899 162.254 41.7402 163.931 41.7402C165.608 41.7402 166.968 43.0899 166.968 44.7541C166.968 46.4185 165.609 47.768 163.931 47.768C162.254 47.768 160.895 46.4185 160.895 44.7541Z" fill="#1771F1"/>
<path d="M162.859 46.4112C162.815 46.4112 162.779 46.3986 162.754 46.3732C162.728 46.3449 162.715 46.3062 162.715 46.2585V43.174C162.715 43.1234 162.728 43.0847 162.754 43.0593C162.783 43.034 162.819 43.0213 162.864 43.0213H163.994C164.353 43.0213 164.629 43.104 164.821 43.2693C165.013 43.4348 165.11 43.6701 165.11 43.9747C165.11 44.1721 165.066 44.3419 164.979 44.485C164.893 44.625 164.764 44.7315 164.595 44.8046C164.428 44.8775 164.228 44.914 163.994 44.914L164.046 44.8522H164.114C164.236 44.8522 164.342 44.8842 164.431 44.9475C164.524 45.0108 164.608 45.1144 164.681 45.2574L165.19 46.1967C165.213 46.2317 165.222 46.2667 165.219 46.3017C165.219 46.3337 165.208 46.3606 165.186 46.3829C165.163 46.4022 165.135 46.4112 165.099 46.4112C165.057 46.4112 165.022 46.4015 164.994 46.3829C164.968 46.3635 164.946 46.3367 164.926 46.3017L164.389 45.3051C164.305 45.1523 164.212 45.0526 164.109 45.0048C164.007 44.9542 163.869 44.9289 163.696 44.9289H163.009V46.2593C163.009 46.3069 162.995 46.3449 162.97 46.3739C162.947 46.3993 162.911 46.4112 162.859 46.4112ZM163.009 44.6809H163.956C164.24 44.6809 164.453 44.622 164.595 44.5043C164.739 44.3837 164.811 44.2072 164.811 43.9755C164.811 43.7438 164.739 43.5732 164.595 43.4555C164.453 43.3349 164.24 43.2746 163.956 43.2746H163.009V44.6809Z" fill="#1771F1"/>
</g>
<defs>
<clipPath id="clip0_131_2169">
<rect width="167" height="72" fill="white"/>
</clipPath>
</defs>
</svg>
