<svg xmlns="http://www.w3.org/2000/svg" width="129" height="29.143" viewBox="0 0 129 29.143">
  <g id="logo" transform="translate(0.5 0.5)">
    <path id="Union_14" data-name="Union 14" d="M20.528,25.56a9.375,9.375,0,0,1-2.49-6.787A8.836,8.836,0,0,1,20.6,12.28,8.484,8.484,0,0,1,26.855,9.7a7.294,7.294,0,0,1,5.109,1.641,5,5,0,0,1,1.79,3.783,2.539,2.539,0,0,1-1.883,2.58l-8.927,3.283a6.4,6.4,0,0,0,2.1,2.988,5.306,5.306,0,0,0,3.319,1.069,5.438,5.438,0,0,0,2.9-.756,4.731,4.731,0,0,0,1.824-1.936.68.68,0,0,1,.758-.3.556.556,0,0,1,.425.664,6.2,6.2,0,0,1-2.288,3.688,7.632,7.632,0,0,1-5.2,1.735A8.323,8.323,0,0,1,20.528,25.56Zm2.822-12.8a8.133,8.133,0,0,0-1.034,4.352,12.085,12.085,0,0,0,.222,2.362l6.124-2.656a1.574,1.574,0,0,0,.96-1.549,4.757,4.757,0,0,0-1.015-2.748,2.985,2.985,0,0,0-2.49-1.421A3.136,3.136,0,0,0,23.35,12.761ZM97.033,26.684a4.884,4.884,0,0,1-1.9-4.114A4.736,4.736,0,0,1,97.014,18.5a7.76,7.76,0,0,1,4.833-1.458,6.823,6.823,0,0,1,4.28,1.254l-.075-.738a13.624,13.624,0,0,0-1.181-4.943,2.85,2.85,0,0,0-2.692-1.549,2.7,2.7,0,0,0-1.9.7,3.7,3.7,0,0,0-1.034,1.531,5.447,5.447,0,0,1-.793,1.53,1.546,1.546,0,0,1-1.292.7,1.842,1.842,0,0,1-1.308-.46,1.6,1.6,0,0,1-.5-1.236,3.433,3.433,0,0,1,1.937-2.952A9.255,9.255,0,0,1,102.179,9.7a7.767,7.767,0,0,1,5.606,2.047,8.89,8.89,0,0,1,2.547,5.626l.736,7.084a2.447,2.447,0,0,0,.424,1.271,1.521,1.521,0,0,0,.7.572,2.5,2.5,0,0,1,.628.3.557.557,0,0,1,.275.479c0,.616-1,.921-2.988.921a3.951,3.951,0,0,1-2.158-.459,2.219,2.219,0,0,1-.792-1.754q-1.476,2.362-5.128,2.362A8,8,0,0,1,97.033,26.684Zm3.412-7.266a3.6,3.6,0,0,0-.959,2.637,5.269,5.269,0,0,0,1.051,3.319,3.272,3.272,0,0,0,2.711,1.365,3.074,3.074,0,0,0,2.454-1.105,3.624,3.624,0,0,0,.864-2.62l-.109-1.143a3.7,3.7,0,0,0-1.069-2.509,3.689,3.689,0,0,0-4.943.057ZM59.979,26.794q-2.138-1.307-2.139-2.931a1.592,1.592,0,0,1,.5-1.255,1.947,1.947,0,0,1,1.346-.443,1.713,1.713,0,0,1,1.236.481,3.466,3.466,0,0,1,.792,1.179,13.167,13.167,0,0,0,.683,1.384,3.224,3.224,0,0,0,1.18,1.161,3.731,3.731,0,0,0,1.973.481A3.871,3.871,0,0,0,68,26.113a2.515,2.515,0,0,0,.938-2.1,2.419,2.419,0,0,0-1.106-2.12,7.9,7.9,0,0,0-2.675-1.126q-1.566-.367-3.153-.847A5.794,5.794,0,0,1,59.315,18.2a4.7,4.7,0,0,1-1.106-3.264,4.489,4.489,0,0,1,2.028-3.744A8.547,8.547,0,0,1,65.44,9.7a9.549,9.549,0,0,1,5.329,1.347,3.744,3.744,0,0,1,2.047,3.045,1.493,1.493,0,0,1-.479,1.143,1.735,1.735,0,0,1-1.217.441,1.544,1.544,0,0,1-1.164-.48,4.145,4.145,0,0,1-.774-1.163c-.209-.454-.431-.909-.664-1.364a3.092,3.092,0,0,0-1.07-1.16,3.492,3.492,0,0,0-4,.331,2.647,2.647,0,0,0-.884,2.029,2.471,2.471,0,0,0,1.106,2.139,7.929,7.929,0,0,0,2.674,1.16q1.569.391,3.156.868a5.919,5.919,0,0,1,2.692,1.7A4.65,4.65,0,0,1,73.3,22.978a4.322,4.322,0,0,1-2.12,3.669,9.764,9.764,0,0,1-5.625,1.458A10.536,10.536,0,0,1,59.979,26.794ZM49.872,27.809c-.541,0-.811-.183-.811-.553v-.147c0-.222.226-.548.681-.977a1.845,1.845,0,0,0,.647-1.458l-.37-7.119q-.257-6.087-3.873-6.087a3.485,3.485,0,0,0-2.8,1.273,4.957,4.957,0,0,0-1.069,3.3v8.668a1.837,1.837,0,0,0,.755,1.44q.757.626.758.96v.147c0,.37-.273.553-.813.553H37.255c-.517,0-.773-.183-.773-.553v-.147q0-.334.737-.96a1.851,1.851,0,0,0,.736-1.44V14.825a1.586,1.586,0,0,0-.422-1.143,5.493,5.493,0,0,0-.83-.721.758.758,0,0,1-.406-.608v-.111c0-.244.222-.466.664-.662l3.577-1.735c.4-.171.684-.188.868-.055a.834.834,0,0,1,.277.72v2.4a5.616,5.616,0,0,1,2.25-2.36A6.6,6.6,0,0,1,47.289,9.7a6.516,6.516,0,0,1,4.8,1.957Q54.041,13.607,54.3,17.7l.444,6.971a2.156,2.156,0,0,0,.681,1.458q.646.643.647.977v.147c0,.37-.273.553-.811.553Zm65.438-.036q-.773,0-.773-.517v-.147q0-.334.7-.96a1.886,1.886,0,0,0,.7-1.44v-9.92a1.8,1.8,0,0,0-.792-1.459c-.531-.406-.794-.718-.794-.941V12.28c0-.271.222-.529.664-.774l3.616-1.662q1.068-.516,1.069.628v2.877A4.83,4.83,0,0,1,124.607,9.7a3.4,3.4,0,0,1,2.49.887A2.964,2.964,0,0,1,128,12.8q0,2.323-1.919,2.324a1.7,1.7,0,0,1-1.253-.444,1.921,1.921,0,0,1-.553-1,2.069,2.069,0,0,0-.517-1,1.427,1.427,0,0,0-1.108-.444,2.058,2.058,0,0,0-1.879,1.33,7.191,7.191,0,0,0-.665,3.245v7.892a1.782,1.782,0,0,0,.849,1.44c.565.417.849.737.849.96v.147q0,.516-.775.517Zm-27.074,0c-.419,0-.627-.185-.627-.552v-.074c0-.222.176-.5.534-.832s.411-.657.166-.977l-4.723-6.308-2.506,2.326v3.356a1.85,1.85,0,0,0,.756,1.42q.754.645.753.978v.111q0,.551-.809.552H76.173c-.513,0-.774-.185-.774-.552v-.111c0-.245.226-.579.684-1a1.873,1.873,0,0,0,.68-1.4V5.272a2.1,2.1,0,0,0-.774-1.587q-.775-.7-.775-.921V2.652c0-.243.211-.466.626-.664L79.753.144a1.115,1.115,0,0,1,.975-.056.694.694,0,0,1,.353.647V18.92l6.637-5.791q.593-.516-.127-1.347c-.479-.553-.722-.9-.722-1.051v-.111c0-.367.224-.552.666-.552h4.721c.419,0,.626.173.626.517v.109a.919.919,0,0,1-.422.7,11.5,11.5,0,0,1-1.2.792A7.7,7.7,0,0,0,90,13.093l-3.615,3.318,6.569,8.926a4.477,4.477,0,0,0,1.07.849c.539.344.813.664.813.96v.109c0,.344-.225.517-.664.517Zm-87.427,0a.839.839,0,0,1-.553-.221A.66.66,0,0,1,0,27.035v-.294A3.047,3.047,0,0,1,.589,25.56l10.221-14.2H5.2a1.955,1.955,0,0,0-1.33.572A5.021,5.021,0,0,0,2.858,13.2a6.8,6.8,0,0,1-.9,1.273,1.416,1.416,0,0,1-1,.572H.774a.563.563,0,0,1-.553-.295,1.036,1.036,0,0,1,0-.776l.923-2.988q.328-.922,1.069-.922H14.864a.757.757,0,0,1,.739.738v.37a3.82,3.82,0,0,1-.775,1.365L4.647,26.483h6.6a2.335,2.335,0,0,0,1.53-.61,5.1,5.1,0,0,0,1.145-1.345,7.678,7.678,0,0,1,.979-1.349,1.5,1.5,0,0,1,1.032-.607h.222c.538,0,.726.309.551.922L15.677,26.96c-.173.543-.481.813-.921.813Z" transform="translate(0)" fill="#024" stroke="rgba(0,0,0,0)" stroke-miterlimit="10" stroke-width="1"/>
  </g>
</svg>
